name ./resultDataOpenSim/trcMotMarkerGrf/sub06/grf-13-07.mot
datacolumns 19
datarows 22
range 1.03600000 1.12000000
endheader

                time	     ground_force_vx	     ground_force_vy	     ground_force_vz	     ground_force_px	     ground_force_py	     ground_force_pz	   l_ground_force_vx	   l_ground_force_vy	   l_ground_force_vz	   l_ground_force_px	   l_ground_force_py	   l_ground_force_pz	     ground_torque_x	     ground_torque_y	     ground_torque_z	   l_ground_torque_x	   l_ground_torque_y	   l_ground_torque_z	
          1.03600000	          0.00000000	          0.00000000	          0.00000000	          0.00000000	          0.00000000	          0.00000000	        131.17944643	        685.49342012	         12.66817900	          0.05578144	         -0.05000300	         -0.06470086	          0.00000000	          0.00000000	          0.00000000	          0.00000000	         -2.30412821	          0.00000000	
          1.04000000	          0.00000000	          0.00000000	          0.00000000	          0.00000000	          0.00000000	          0.00000000	        138.72831509	        698.52368041	         12.06932749	          0.05632755	         -0.05000300	         -0.06420743	          0.00000000	          0.00000000	          0.00000000	          0.00000000	         -2.39736197	          0.00000000	
          1.04400000	          0.00000000	          0.00000000	          0.00000000	          0.00000000	          0.00000000	          0.00000000	        146.38238720	        709.43331533	         11.30347620	          0.05689460	         -0.05000244	         -0.06371895	          0.00000000	          0.00000000	          0.00000000	          0.00000000	         -2.47707666	          0.00000000	
          1.04800000	          0.00000000	          0.00000000	          0.00000000	          0.00000000	          0.00000000	          0.00000000	        154.09507229	        718.12409068	         10.42468920	          0.05748798	         -0.05000200	         -0.06323059	          0.00000000	          0.00000000	          0.00000000	          0.00000000	         -2.53763504	          0.00000000	
          1.05200000	          0.00000000	          0.00000000	          0.00000000	          0.00000000	          0.00000000	          0.00000000	        161.80376505	        724.44605652	          9.48254078	          0.05810605	         -0.05000200	         -0.06275124	          0.00000000	          0.00000000	          0.00000000	          0.00000000	         -2.57476268	          0.00000000	
          1.05600000	          0.00000000	          0.00000000	          0.00000000	          0.00000000	          0.00000000	          0.00000000	        169.42953327	        728.21123773	          8.50509248	          0.05872623	         -0.05000200	         -0.06229970	          0.00000000	          0.00000000	          0.00000000	          0.00000000	         -2.58620122	          0.00000000	
          1.06000000	          0.00000000	          0.00000000	          0.00000000	          0.00000000	          0.00000000	          0.00000000	        176.88439481	        729.24506503	          7.49980126	          0.05931999	         -0.05000173	         -0.06188682	          0.00000000	          0.00000000	          0.00000000	          0.00000000	         -2.57198187	          0.00000000	
          1.06400000	          0.00000000	          0.00000000	          0.00000000	          0.00000000	          0.00000000	          0.00000000	        184.07268021	        727.38149535	          6.45911672	          0.05987515	         -0.05000121	         -0.06151246	          0.00000000	          0.00000000	          0.00000000	          0.00000000	         -2.53427277	          0.00000000	
          1.06800000	          0.00000000	          0.00000000	          0.00000000	          0.00000000	          0.00000000	          0.00000000	        190.88118804	        722.42361946	          5.36478983	          0.06041071	         -0.05000100	         -0.06116799	          0.00000000	          0.00000000	          0.00000000	          0.00000000	         -2.47685862	          0.00000000	
          1.07200000	          0.00000000	          0.00000000	          0.00000000	          0.00000000	          0.00000000	          0.00000000	        197.15848834	        714.13946625	          4.20110935	          0.06097399	         -0.05000072	         -0.06084151	          0.00000000	          0.00000000	          0.00000000	          0.00000000	         -2.40441002	          0.00000000	
          1.07600000	          0.00000000	          0.00000000	          0.00000000	          0.00000000	          0.00000000	          0.00000000	        202.69168578	        702.28665214	          2.97664257	          0.06162115	         -0.05000000	         -0.06052048	          0.00000000	          0.00000000	          0.00000000	          0.00000000	         -2.32180199	          0.00000000	
          1.08000000	          0.00000000	          0.00000000	          0.00000000	          0.00000000	          0.00000000	          0.00000000	        207.20504228	        686.62692397	          1.72953608	          0.06238993	         -0.04999980	         -0.06019698	          0.00000000	          0.00000000	          0.00000000	          0.00000000	         -2.23372978	          0.00000000	
          1.08400000	          0.00000000	          0.00000000	          0.00000000	          0.00000000	          0.00000000	          0.00000000	        210.38467095	        666.91889683	          0.50289565	          0.06328265	         -0.04999900	         -0.05987521	          0.00000000	          0.00000000	          0.00000000	          0.00000000	         -2.14461878	          0.00000000	
          1.08800000	          0.00000000	          0.00000000	          0.00000000	          0.00000000	          0.00000000	          0.00000000	        211.90038838	        642.91742256	         -0.68286345	          0.06427310	         -0.04999888	         -0.05957290	          0.00000000	          0.00000000	          0.00000000	          0.00000000	         -2.05849090	          0.00000000	
          1.09200000	          0.00000000	          0.00000000	          0.00000000	          0.00000000	          0.00000000	          0.00000000	        211.41061623	        614.44084640	         -1.83504059	          0.06536614	         -0.04999792	         -0.05929613	          0.00000000	          0.00000000	          0.00000000	          0.00000000	         -1.97839982	          0.00000000	
          1.09600000	          0.00000000	          0.00000000	          0.00000000	          0.00000000	          0.00000000	          0.00000000	        208.57193763	        581.47590632	         -2.97416012	          0.06659061	         -0.04999696	         -0.05903497	          0.00000000	          0.00000000	          0.00000000	          0.00000000	         -1.90541543	          0.00000000	
          1.10000000	          0.00000000	          0.00000000	          0.00000000	          0.00000000	          0.00000000	          0.00000000	        203.07658620	        544.20204860	         -4.10939742	          0.06794757	         -0.04999600	         -0.05877822	          0.00000000	          0.00000000	          0.00000000	          0.00000000	         -1.83763555	          0.00000000	
          1.10400000	          0.00000000	          0.00000000	          0.00000000	          0.00000000	          0.00000000	          0.00000000	        194.71266694	        502.98063368	         -5.21958569	          0.06943843	         -0.04999568	         -0.05852612	          0.00000000	          0.00000000	          0.00000000	          0.00000000	         -1.76990839	          0.00000000	
          1.10800000	          0.59666351	          7.73633245	          3.30848322	          0.74704928	          0.00000000	         -0.00029302	        183.42169906	        458.42703001	         -6.24563277	          0.07109817	         -0.04999505	         -0.05828407	          0.00000000	          0.44954888	          0.00000000	          0.00000000	         -1.69467544	          0.00000000	
          1.11200000	        -20.06128584	        185.68328633	         15.88425988	          0.75457021	          0.00000000	         -0.00031031	        169.34475445	        411.50001444	         -7.09407111	          0.07295716	         -0.04999412	         -0.05806368	          0.00000000	          0.66639069	          0.00000000	          0.00000000	         -1.60379411	          0.00000000	
          1.11600000	        -42.08467536	        348.14353061	         27.52141413	          0.76126988	          0.00000000	         -0.00026430	        152.88834094	        363.51230497	         -7.67028874	          0.07505144	         -0.04999330	         -0.05784598	          0.00000000	          0.83779061	          0.00000000	          0.00000000	         -1.49076709	          0.00000000	
          1.12000000	        -66.54032283	        483.08104130	         37.06236633	          0.76764503	          0.00000000	         -0.00000373	        134.81341624	        316.02912021	         -7.92038382	          0.07738975	         -0.04999223	         -0.05760746	          0.00000000	          0.93055366	          0.00000000	          0.00000000	         -1.35270645	          0.00000000	
